<svg width="25" height="24" viewBox="0 0 25 24" fill="none" xmlns="http://www.w3.org/2000/svg">
<rect width="24" height="24" transform="translate(0.19751)" fill="#DDEAFB"/>
<path d="M12.0275 9L15.1975 12.16C15.1975 12.11 15.1975 12.05 15.1975 12C15.1975 11.2044 14.8814 10.4413 14.3188 9.87868C13.7562 9.31607 12.9932 9 12.1975 9C12.1375 9 12.0875 9 12.0275 9ZM7.72751 9.8L9.27751 11.35C9.22751 11.56 9.19751 11.77 9.19751 12C9.19751 12.7956 9.51358 13.5587 10.0762 14.1213C10.6388 14.6839 11.4019 15 12.1975 15C12.4175 15 12.6375 14.97 12.8475 14.92L14.3975 16.47C13.7275 16.8 12.9875 17 12.1975 17C10.8714 17 9.59966 16.4732 8.66198 15.5355C7.72429 14.5979 7.19751 13.3261 7.19751 12C7.19751 11.21 7.39751 10.47 7.72751 9.8ZM2.19751 4.27L4.47751 6.55L4.92751 7C3.27751 8.3 1.97751 10 1.19751 12C2.92751 16.39 7.19751 19.5 12.1975 19.5C13.7475 19.5 15.2275 19.2 16.5775 18.66L17.0075 19.08L19.9275 22L21.1975 20.73L3.46751 3M12.1975 7C13.5236 7 14.7954 7.52678 15.733 8.46447C16.6707 9.40215 17.1975 10.6739 17.1975 12C17.1975 12.64 17.0675 13.26 16.8375 13.82L19.7675 16.75C21.2675 15.5 22.4675 13.86 23.1975 12C21.4675 7.61 17.1975 4.5 12.1975 4.5C10.7975 4.5 9.45751 4.75 8.19751 5.2L10.3675 7.35C10.9375 7.13 11.5475 7 12.1975 7Z" fill="#91BDF5"/>
</svg>
